<svg width="64" height="64" viewBox="0 0 64 64" fill="none" xmlns="http://www.w3.org/2000/svg">
  <defs>
    <linearGradient id="faviconGradient" x1="0%" y1="0%" x2="100%" y2="100%">
      <stop offset="0%" style="stop-color:#10b981;stop-opacity:1" />
      <stop offset="50%" style="stop-color:#059669;stop-opacity:1" />
      <stop offset="100%" style="stop-color:#047857;stop-opacity:1" />
    </linearGradient>
    <linearGradient id="stemGradient" x1="0%" y1="0%" x2="0%" y2="100%">
      <stop offset="0%" style="stop-color:#059669;stop-opacity:1" />
      <stop offset="100%" style="stop-color:#047857;stop-opacity:1" />
    </linearGradient>
  </defs>

  <!-- Background circle -->
  <circle cx="32" cy="32" r="30" fill="white"/>
  <circle cx="32" cy="32" r="28" fill="url(#faviconGradient)" opacity="0.08"/>

  <!-- Main leaf shape -->
  <path
    d="M32 12 C32 12, 22 17, 19 28 C16 39, 22 48, 32 53 C42 48, 48 39, 45 28 C42 17, 32 12, 32 12 Z"
    fill="url(#faviconGradient)"
    stroke="#047857"
    stroke-width="1.5"
  />

  <!-- Central vein -->
  <path
    d="M32 14 L32 50"
    stroke="url(#stemGradient)"
    stroke-width="2.5"
    stroke-linecap="round"
  />

  <!-- Side veins -->
  <path
    d="M32 20 Q27 23, 23 28"
    stroke="#047857"
    stroke-width="2"
    stroke-linecap="round"
    opacity="0.7"
  />
  <path
    d="M32 20 Q37 23, 41 28"
    stroke="#047857"
    stroke-width="2"
    stroke-linecap="round"
    opacity="0.7"
  />
  <path
    d="M32 32 Q27 35, 24 40"
    stroke="#047857"
    stroke-width="2"
    stroke-linecap="round"
    opacity="0.7"
  />
  <path
    d="M32 32 Q37 35, 40 40"
    stroke="#047857"
    stroke-width="2"
    stroke-linecap="round"
    opacity="0.7"
  />

  <!-- Highlight -->
  <ellipse
    cx="26"
    cy="22"
    rx="8"
    ry="10"
    fill="white"
    opacity="0.25"
  />
</svg>
